<?xml version="1.0" standalone="no"?>
<!DOCTYPE svg PUBLIC "-//W3C//DTD SVG 20010904//EN"
 "http://www.w3.org/TR/2001/REC-SVG-20010904/DTD/svg10.dtd">
<svg version="1.0" xmlns="http://www.w3.org/2000/svg"
 width="1654.000000pt" height="2339.000000pt" viewBox="0 0 1654.000000 2339.000000"
 preserveAspectRatio="xMidYMid meet">
<metadata>
Created by potrace 1.16, written by Peter Selinger 2001-2019
</metadata>
<g transform="translate(0.000000,2339.000000) scale(0.100000,-0.100000)"
fill="#000000" stroke="none">
<path d="M8605 21998 c-3 -7 -4 -1595 -3 -3528 l3 -3515 420 0 420 0 0 3525 0
3525 -418 3 c-329 2 -419 0 -422 -10z m167 -3470 l3 -3463 225 0 225 0 5 3460
5 3460 98 3 97 3 0 -3511 0 -3510 -405 0 -405 0 0 3503 c0 1927 3 3507 7 3510
3 4 37 7 75 7 l68 0 2 -3462z m438 7 l0 -3455 -210 0 -210 0 0 3448 c0 1897 3
3452 7 3455 3 4 98 7 210 7 l203 0 0 -3455z"/>
<path d="M10126 21388 c3 -343 14 -1929 24 -3526 11 -1596 22 -2907 25 -2912
4 -6 77 -10 181 -10 l174 0 0 -50 0 -50 113 0 c143 -1 2466 -1 2610 0 l108 0
-3 118 -3 117 -1512 3 -1513 2 0 3460 c0 3069 -2 3460 -15 3460 -13 0 -15
-391 -15 -3458 0 -2676 3 -3461 12 -3470 9 -9 360 -12 1520 -12 l1508 0 0 -45
0 -45 -1574 0 -1573 0 -7 628 c-3 345 -13 1770 -21 3167 -16 2721 -22 3245
-36 3245 -6 0 -7 -256 -3 -622z m624 -6488 l0 -40 -95 0 -95 0 0 40 0 40 95 0
95 0 0 -40z m210 0 l0 -40 -95 0 -95 0 0 40 0 40 95 0 95 0 0 -40z m220 0 l0
-40 -95 0 -95 0 0 40 0 40 95 0 95 0 0 -40z m220 0 l0 -40 -100 0 -100 0 0 40
0 40 100 0 100 0 0 -40z m210 0 l0 -40 -95 0 -95 0 0 40 0 40 95 0 95 0 0 -40z
m220 0 l0 -40 -95 0 -95 0 0 40 0 40 95 0 95 0 0 -40z m210 0 l0 -40 -95 0
-95 0 0 40 0 40 95 0 95 0 0 -40z m220 0 l0 -40 -95 0 -95 0 0 40 0 40 95 0
95 0 0 -40z m220 0 l0 -40 -100 0 -100 0 0 40 0 40 100 0 100 0 0 -40z m210 0
l0 -40 -95 0 -95 0 0 40 0 40 95 0 95 0 0 -40z m220 0 l0 -40 -95 0 -95 0 0
40 0 40 95 0 95 0 0 -40z m210 0 l0 -40 -95 0 -95 0 0 40 0 40 95 0 95 0 0
-40z m220 0 l0 -40 -95 0 -95 0 0 40 0 40 95 0 95 0 0 -40z"/>
<path d="M7908 21974 c-5 -4 -8 -1130 -8 -2503 l-1 -2496 -728 -995 -728 -995
-2227 -3 -2227 -2 -67 39 c-317 188 -742 206 -1078 47 -361 -171 -602 -486
-670 -876 -23 -136 -15 -350 19 -481 33 -126 77 -230 141 -332 50 -80 66 -127
370 -1078 175 -547 370 -1156 433 -1354 199 -622 784 -2471 864 -2730 23 -71
47 -148 54 -170 8 -22 37 -114 65 -205 29 -91 58 -174 65 -186 7 -11 27 -65
43 -120 17 -54 60 -191 96 -304 105 -329 290 -915 331 -1045 42 -136 245 -783
500 -1590 95 -302 201 -640 235 -750 34 -110 74 -238 90 -285 16 -47 88 -274
160 -505 73 -231 154 -490 180 -575 27 -85 76 -243 110 -350 33 -107 112 -346
175 -530 90 -264 115 -351 120 -410 30 -366 268 -710 601 -870 332 -159 721
-138 1029 56 118 73 192 139 277 245 l70 89 89 0 c55 0 89 -4 89 -10 0 -44
-129 -230 -229 -331 -204 -203 -470 -326 -756 -349 -343 -27 -680 92 -926 327
-191 182 -304 390 -358 658 -11 56 -861 2763 -1920 6118 l-1900 6019 -56 86
c-101 155 -161 303 -202 493 -27 130 -25 382 6 518 60 272 169 471 365 667
125 125 222 194 370 265 396 189 884 167 1239 -55 l82 -51 2095 -3 c1671 -2
2099 0 2112 10 8 7 345 449 747 981 l731 968 0 2475 c0 1643 -3 2474 -10 2474
-7 0 -10 -830 -10 -2470 l0 -2471 -737 -974 -737 -975 -2085 0 -2086 0 -38 26
c-70 47 -231 122 -330 152 -269 84 -572 81 -837 -8 -386 -129 -705 -444 -841
-830 -57 -161 -69 -243 -69 -456 0 -150 4 -202 21 -281 37 -170 103 -326 200
-469 47 -70 78 -167 1952 -6105 1048 -3319 1910 -6065 1916 -6104 17 -98 75
-266 122 -355 179 -332 496 -565 860 -635 93 -17 331 -20 426 -5 360 59 687
287 870 609 l43 76 443 5 c243 3 2025 4 3960 2 3100 -2 3517 -4 3517 -17 0 -8
5 -15 10 -15 16 0 13 145 -4 159 -10 8 -922 10 -3467 9 l-3454 -3 -3 -52 -3
-53 -65 0 -64 0 0 44 c0 25 -4 47 -9 51 -8 4 -394 7 -768 6 l-113 -1 0 -50 0
-50 -100 0 c-83 0 -103 -3 -114 -17 -8 -10 -43 -54 -78 -97 -234 -294 -642
-438 -1018 -361 -451 93 -793 478 -835 940 -6 63 -29 144 -111 382 l-103 303
44 11 c24 6 46 17 49 24 2 7 -8 53 -24 101 -16 49 -60 190 -98 314 -95 304
-324 1034 -428 1364 -47 148 -103 326 -124 395 -33 110 -675 2148 -875 2776
-40 127 -115 363 -166 525 -51 162 -98 302 -104 310 -7 8 -26 60 -43 115 -16
55 -128 408 -247 785 -119 377 -257 813 -306 970 -50 157 -119 375 -153 485
-35 110 -94 295 -131 410 -36 116 -97 307 -135 425 -38 118 -90 283 -116 365
-25 83 -48 151 -49 153 -1 1 -24 -5 -50 -13 -27 -8 -51 -13 -53 -10 -2 2 -141
433 -309 957 -251 785 -311 964 -343 1013 -142 226 -197 429 -187 690 12 310
134 579 361 793 367 347 925 415 1361 167 l78 -45 174 0 173 0 0 -55 0 -55
2063 2 2062 3 5 62 5 62 728 995 727 995 -2 2506 c-2 1379 -6 2503 -10 2499z
m-5368 -7059 l0 -45 -95 0 -95 0 0 45 0 45 95 0 95 0 0 -45z m220 0 l0 -45
-95 0 -95 0 0 45 0 45 95 0 95 0 0 -45z m218 3 l-3 -43 -95 0 -95 0 -3 28 c-6
54 -1 57 103 57 l96 0 -3 -42z m212 -3 l0 -45 -95 0 -95 0 0 45 0 45 95 0 95
0 0 -45z m220 0 l0 -45 -95 0 -95 0 0 45 0 45 95 0 95 0 0 -45z m210 0 l0 -45
-95 0 -95 0 0 45 0 45 95 0 95 0 0 -45z m220 0 l0 -45 -95 0 -95 0 0 45 0 45
95 0 95 0 0 -45z m220 0 l0 -45 -95 0 -95 0 0 45 0 45 95 0 95 0 0 -45z m210
0 l0 -45 -95 0 -95 0 0 45 0 45 95 0 95 0 0 -45z m220 0 l0 -45 -95 0 -95 0 0
45 0 45 95 0 95 0 0 -45z m210 0 l0 -45 -95 0 -95 0 0 45 0 45 95 0 95 0 0
-45z m220 0 l0 -45 -95 0 -95 0 0 45 0 45 95 0 95 0 0 -45z m220 0 l0 -45 -95
0 -95 0 0 45 0 45 95 0 95 0 0 -45z m210 0 l0 -45 -95 0 -95 0 0 45 0 45 95 0
95 0 0 -45z m220 0 l0 -45 -95 0 -95 0 0 45 0 45 95 0 95 0 0 -45z m210 0 l0
-45 -95 0 -95 0 0 45 0 45 95 0 95 0 0 -45z m220 0 l0 -45 -95 0 -95 0 0 45 0
45 95 0 95 0 0 -45z m220 0 l0 -45 -95 0 -95 0 0 45 0 45 95 0 95 0 0 -45z
m210 0 l0 -45 -95 0 -95 0 0 45 0 45 95 0 95 0 0 -45z m-5289 -3625 l28 -85
-27 -12 c-15 -7 -33 -12 -40 -13 -14 0 -34 44 -34 78 0 12 -4 22 -8 22 -4 0
-11 11 -14 24 -3 13 -8 31 -12 39 -3 10 4 18 23 25 48 18 56 11 84 -78z m89
-286 c0 -6 -11 -15 -24 -18 -13 -3 -31 -8 -38 -11 -10 -4 -18 5 -25 27 -12 39
-6 68 9 47 8 -11 9 -11 5 1 -2 8 -10 14 -16 12 -13 -3 -44 63 -38 81 2 6 19
16 38 22 l34 12 28 -81 c15 -44 27 -85 27 -92z m42 -124 c15 -46 24 -88 20
-92 -4 -4 -22 -11 -40 -14 -28 -6 -33 -3 -42 21 -6 16 -9 41 -6 56 3 19 0 26
-9 23 -8 -3 -16 9 -22 34 -10 39 -10 40 21 50 17 5 35 9 40 8 5 -1 22 -40 38
-86z m62 -198 c14 -42 26 -82 26 -89 0 -10 -49 -33 -71 -33 -7 0 -59 155 -59
174 0 8 40 25 62 25 12 1 23 -20 42 -77z m70 -217 c14 -43 23 -82 18 -86 -4
-3 -22 -11 -40 -17 -30 -10 -33 -9 -42 14 -6 14 -10 31 -10 37 0 7 -9 36 -20
65 l-20 52 22 9 c47 17 53 18 59 12 4 -3 18 -42 33 -86z m62 -200 c30 -92 29
-99 -23 -110 l-31 -6 -27 86 c-14 48 -25 89 -23 91 6 6 53 23 65 23 6 1 24
-37 39 -84z m69 -213 c15 -46 25 -85 24 -86 -13 -11 -74 -25 -80 -19 -8 9 -54
166 -51 173 4 9 67 28 73 21 4 -3 19 -43 34 -89z m61 -197 c30 -92 29 -101
-23 -111 -30 -6 -32 -5 -43 37 -7 24 -19 61 -26 82 -8 20 -14 41 -14 46 0 7
46 26 72 30 4 1 19 -37 34 -84z m68 -211 c15 -47 26 -87 24 -88 -13 -11 -73
-25 -78 -19 -4 5 -18 45 -32 90 l-25 82 26 10 c51 19 56 15 85 -75z m61 -195
c31 -99 31 -105 1 -113 -13 -3 -31 -9 -39 -12 -11 -4 -17 4 -22 28 -4 18 -15
57 -26 86 -10 29 -19 56 -19 61 0 7 47 26 72 30 4 1 19 -35 33 -80z m65 -206
c13 -43 25 -83 27 -89 5 -15 -66 -40 -77 -28 -4 5 -18 43 -30 84 -12 41 -24
78 -27 82 -3 7 46 25 73 27 6 1 21 -34 34 -76z m65 -204 c14 -44 25 -86 25
-93 0 -10 -69 -41 -76 -33 -9 10 -53 171 -49 176 5 5 19 11 72 30 1 1 14 -35
28 -80z m69 -216 c16 -52 23 -90 17 -96 -5 -5 -23 -10 -41 -10 -33 -2 -33 -2
-60 83 l-27 85 31 12 c17 6 36 12 42 12 6 1 23 -38 38 -86z m67 -213 l26 -85
-31 -12 c-49 -18 -51 -17 -73 55 -37 118 -37 111 -11 122 50 20 61 10 89 -80z
m60 -192 c13 -46 24 -87 24 -92 0 -5 -17 -15 -37 -22 l-36 -12 -26 77 c-14 43
-26 85 -26 93 0 12 37 31 71 37 3 1 17 -36 30 -81z m69 -220 l28 -88 -40 -11
c-22 -5 -41 -9 -42 -7 -7 8 -57 170 -54 173 9 9 54 24 67 22 8 -1 25 -38 41
-89z m90 -290 c0 -6 -52 -22 -73 -23 -5 0 -21 40 -37 88 l-28 88 21 8 c59 23
60 22 89 -69 15 -47 28 -88 28 -92z m40 -120 l28 -87 -31 -10 c-54 -19 -59
-16 -71 49 -2 14 -11 42 -20 62 -9 21 -16 42 -16 47 0 10 57 31 73 27 5 -1 21
-41 37 -88z m73 -197 c15 -50 27 -92 27 -94 0 -3 -11 -8 -24 -11 -13 -3 -31
-8 -39 -12 -11 -4 -21 14 -41 73 -14 43 -26 85 -26 94 0 13 34 31 71 38 3 1
17 -39 32 -88z m67 -214 l28 -87 -39 -12 c-22 -6 -41 -9 -42 -7 -7 9 -59 171
-56 173 9 7 65 24 73 22 5 -1 22 -41 36 -89z m64 -201 c14 -46 26 -86 26 -89
0 -5 -54 -21 -73 -22 -5 0 -21 39 -37 87 l-28 87 27 10 c53 19 57 16 85 -73z
m67 -207 c15 -46 24 -87 20 -90 -3 -4 -21 -11 -39 -17 -30 -10 -33 -9 -42 14
-5 13 -12 35 -14 47 -2 12 -12 42 -20 66 -9 24 -15 45 -14 46 9 7 65 23 73 21
5 -2 22 -41 36 -87z m64 -202 c14 -46 25 -86 25 -89 0 -6 -56 -28 -71 -28 -12
0 -62 171 -53 180 9 8 37 16 61 19 7 0 23 -35 38 -82z m68 -215 l25 -83 -23
-9 c-54 -21 -56 -19 -86 69 -16 47 -26 87 -23 90 11 11 69 28 75 22 3 -3 18
-43 32 -89z m62 -198 c15 -48 23 -90 18 -95 -5 -5 -23 -11 -40 -15 l-31 -6
-26 79 c-14 43 -26 84 -26 90 0 10 40 28 72 32 4 1 19 -38 33 -85z m62 -196
c12 -40 25 -80 28 -90 5 -12 -1 -18 -27 -24 -18 -5 -37 -9 -42 -9 -6 0 -64
152 -66 173 0 6 46 21 65 21 17 1 25 -11 42 -71z m67 -214 c15 -47 24 -89 19
-94 -4 -4 -22 -12 -39 -18 l-31 -10 -27 90 c-15 50 -26 91 -24 93 4 3 61 23
68 24 3 1 18 -38 34 -85z m68 -213 c32 -98 32 -99 -44 -105 -6 -1 -24 37 -38
84 l-27 85 26 12 c14 7 32 11 40 10 8 -1 26 -38 43 -86z m88 -287 c0 -6 -11
-15 -24 -18 -13 -3 -31 -9 -39 -12 -11 -4 -17 3 -22 25 -3 17 -6 33 -6 36 1 3
-5 18 -13 33 -7 15 -17 41 -20 58 -7 30 -5 32 31 41 l38 9 28 -80 c15 -44 27
-85 27 -92z m42 -125 l27 -84 -31 -13 c-16 -7 -35 -11 -40 -10 -8 3 -68 158
-68 175 0 5 65 21 75 19 5 -1 22 -40 37 -87z m63 -200 c14 -44 25 -84 25 -88
0 -5 -11 -12 -24 -15 -13 -3 -31 -9 -39 -12 -11 -4 -17 4 -23 28 -10 43 -9 39
-22 71 -26 61 -26 76 -1 86 51 20 57 15 84 -70z m66 -213 l27 -87 -23 -9 c-54
-20 -55 -20 -85 75 -16 49 -28 90 -27 91 9 6 64 22 72 20 5 -1 21 -42 36 -90z
m63 -200 c14 -46 26 -86 26 -89 0 -5 -57 -27 -71 -27 -12 0 -62 171 -52 180 8
8 36 16 60 19 6 0 23 -36 37 -83z m66 -208 c13 -43 23 -80 24 -84 0 -4 -16
-13 -37 -20 -37 -13 -38 -13 -48 14 -6 15 -12 36 -13 47 -2 11 -8 32 -14 46
-21 52 -19 61 18 74 19 7 38 10 41 6 4 -3 17 -41 29 -83z m65 -204 c14 -48 23
-90 18 -95 -5 -5 -23 -11 -40 -15 l-32 -6 -26 87 c-15 48 -25 88 -23 90 6 6
52 24 64 24 7 1 24 -38 39 -85z m61 -196 c12 -36 25 -75 29 -87 5 -16 0 -22
-32 -30 -20 -6 -40 -7 -44 -3 -12 13 -29 74 -23 83 3 5 1 9 -3 9 -5 0 -14 18
-20 41 -10 37 -9 41 11 49 44 19 58 8 82 -62z m68 -222 c14 -46 26 -86 26 -89
0 -5 -57 -27 -71 -27 -12 0 -31 78 -23 92 4 6 3 8 -3 5 -6 -4 -15 11 -22 32
-15 50 -15 50 12 61 49 19 55 14 81 -74z m65 -203 c12 -40 24 -79 27 -86 3
-10 -4 -17 -23 -21 -15 -4 -35 -9 -44 -12 -13 -3 -19 5 -25 33 -4 21 -8 44 -7
51 0 6 -3 12 -7 12 -7 0 -22 57 -20 77 1 11 64 32 71 24 4 -3 16 -38 28 -78z
m66 -209 c14 -48 23 -90 18 -94 -4 -4 -23 -12 -40 -18 -32 -11 -33 -10 -43 29
-6 22 -8 45 -4 51 4 6 3 8 -3 5 -9 -6 -33 53 -33 81 0 10 42 29 66 31 7 1 24
-38 39 -85z m61 -196 c12 -36 25 -75 28 -86 5 -15 -1 -21 -35 -31 -22 -7 -42
-11 -44 -9 -1 2 -12 35 -24 75 -12 40 -24 79 -27 87 -6 14 38 36 65 33 8 -1
24 -32 37 -69z m68 -219 c15 -50 26 -92 24 -93 -2 -1 -20 -7 -40 -13 l-38 -11
-25 82 c-14 45 -25 87 -25 93 0 8 41 27 71 32 3 1 18 -40 33 -90z m67 -209
l26 -85 -26 -12 c-48 -22 -56 -17 -78 55 -37 117 -37 109 -6 120 49 18 56 11
84 -78z m63 -204 c14 -46 26 -86 26 -89 0 -3 -11 -8 -24 -11 -13 -3 -31 -8
-39 -12 -11 -4 -22 16 -45 86 -22 64 -27 92 -19 95 7 2 19 6 27 8 41 14 47 8
74 -77z m66 -209 c15 -48 25 -89 21 -91 -3 -2 -22 -7 -42 -11 -34 -6 -36 -5
-47 31 -6 20 -9 41 -6 46 3 4 1 8 -4 8 -8 0 -37 79 -30 85 8 6 64 23 71 21 5
-1 21 -41 37 -89z m57 -184 c38 -120 38 -110 -3 -123 -20 -7 -39 -8 -44 -4 -4
5 -19 46 -33 91 l-25 82 26 10 c51 18 57 14 79 -56z m68 -216 c14 -46 25 -88
25 -94 0 -10 -50 -33 -70 -33 -11 0 -32 79 -24 92 4 7 3 8 -4 4 -7 -4 -14 8
-19 31 -12 59 -16 54 64 82 1 1 14 -36 28 -82z m2535 -1257 l0 -40 -95 0 -95
0 0 40 0 40 95 0 95 0 0 -40z m220 0 l0 -40 -100 0 -100 0 0 40 0 40 100 0
100 0 0 -40z m210 0 l0 -40 -95 0 -95 0 0 40 0 40 95 0 95 0 0 -40z m220 0 l0
-40 -95 0 -95 0 0 40 0 40 95 0 95 0 0 -40z m370 0 l0 -40 -100 0 -100 0 0 40
0 40 100 0 100 0 0 -40z m210 0 l0 -40 -95 0 -95 0 0 40 0 40 95 0 95 0 0 -40z
m220 0 l0 -40 -95 0 -95 0 0 40 0 40 95 0 95 0 0 -40z m210 0 l0 -40 -95 0
-95 0 0 40 0 40 95 0 95 0 0 -40z m220 0 l0 -40 -95 0 -95 0 0 40 0 40 95 0
95 0 0 -40z m220 0 l0 -40 -100 0 -100 0 0 40 0 40 100 0 100 0 0 -40z m210 0
l0 -40 -95 0 -95 0 0 40 0 40 95 0 95 0 0 -40z m220 0 l0 -40 -95 0 -95 0 0
40 0 40 95 0 95 0 0 -40z m210 0 l0 -40 -95 0 -95 0 0 40 0 40 95 0 95 0 0
-40z m220 0 l0 -40 -95 0 -95 0 0 40 0 40 95 0 95 0 0 -40z m220 0 l0 -40
-100 0 -100 0 0 40 0 40 100 0 100 0 0 -40z m210 0 l0 -40 -95 0 -95 0 0 40 0
40 95 0 95 0 0 -40z m220 0 l0 -40 -95 0 -95 0 0 40 0 40 95 0 95 0 0 -40z
m210 0 l0 -40 -95 0 -95 0 0 40 0 40 95 0 95 0 0 -40z m220 0 l0 -40 -95 0
-95 0 0 40 0 40 95 0 95 0 0 -40z m220 0 l0 -40 -100 0 -100 0 0 40 0 40 100
0 100 0 0 -40z m210 0 l0 -40 -95 0 -95 0 0 40 0 40 95 0 95 0 0 -40z m220 0
l0 -40 -95 0 -95 0 0 40 0 40 95 0 95 0 0 -40z m216 3 l-1 -38 -97 -3 -98 -3
0 41 0 40 98 0 99 0 -1 -37z m214 -3 l0 -40 -95 0 -95 0 0 40 0 40 95 0 95 0
0 -40z m220 0 l0 -40 -95 0 -95 0 0 40 0 40 95 0 95 0 0 -40z m210 0 l0 -40
-95 0 -95 0 0 40 0 40 95 0 95 0 0 -40z m220 0 l0 -40 -95 0 -95 0 0 40 0 40
95 0 95 0 0 -40z m220 0 l0 -40 -100 0 -100 0 0 40 0 40 100 0 100 0 0 -40z
m210 0 l0 -40 -95 0 -95 0 0 40 0 40 95 0 95 0 0 -40z m220 0 l0 -40 -95 0
-95 0 0 40 0 40 95 0 95 0 0 -40z m210 0 l0 -40 -95 0 -95 0 0 40 0 40 95 0
95 0 0 -40z m220 0 l0 -40 -95 0 -95 0 0 40 0 40 95 0 95 0 0 -40z m220 0 l0
-40 -100 0 -100 0 0 40 0 40 100 0 100 0 0 -40z m210 0 l0 -40 -95 0 -95 0 0
40 0 40 95 0 95 0 0 -40z m220 0 l0 -40 -95 0 -95 0 0 40 0 40 95 0 95 0 0
-40z m210 0 l0 -40 -95 0 -95 0 0 40 0 40 95 0 95 0 0 -40z"/>
<path d="M7577 15588 c-240 -348 -433 -636 -429 -640 5 -5 204 -7 443 -6 l434
3 3 629 c1 347 -1 633 -6 638 -4 4 -204 -277 -445 -624z m430 -625 c-2 -2
-191 -2 -419 -1 l-416 3 416 603 417 603 3 -602 c1 -331 1 -604 -1 -606z"/>
<path d="M7593 15472 c-183 -256 -329 -470 -325 -474 5 -5 159 -7 343 -6 l334
3 3 473 c2 374 0 472 -10 472 -7 -1 -163 -211 -345 -468z m334 -459 c-2 -2
-146 -2 -319 -1 l-315 3 316 443 316 442 3 -441 c1 -243 1 -444 -1 -446z"/>
<path d="M13777 15073 c-4 -3 -7 -57 -7 -120 l0 -113 335 0 335 0 0 55 0 55
975 0 c643 0 975 3 975 10 0 7 -440 10 -1300 10 l-1300 0 0 45 0 45 1300 0
c860 0 1300 3 1300 10 0 11 -2602 15 -2613 3z m203 -168 l0 -45 -95 0 -95 0 0
45 0 45 95 0 95 0 0 -45z m220 0 l0 -45 -95 0 -95 0 0 45 0 45 95 0 95 0 0
-45z m220 0 l0 -46 -97 3 -98 3 -3 28 c-6 54 -1 57 103 57 l95 0 0 -45z"/>
<path d="M1163 14796 c-143 -33 -275 -123 -358 -246 -161 -237 -132 -544 70
-745 185 -185 459 -228 689 -107 131 69 228 180 284 330 22 58 26 84 26 187 1
132 -16 200 -73 300 -67 116 -188 215 -320 261 -92 32 -227 40 -318 20z m242
-21 c263 -55 455 -291 455 -560 0 -255 -188 -490 -441 -550 -307 -72 -619 128
-684 440 -18 88 -18 142 0 230 45 215 221 393 435 439 85 19 149 19 235 1z"/>
<path d="M10459 14635 c-28 -15 -59 -70 -59 -104 0 -34 26 -87 51 -105 21 -15
149 -16 1466 -16 l1442 0 35 31 c61 53 58 130 -6 184 l-30 25 -1436 0 c-1223
-1 -1441 -3 -1463 -15z m2923 -34 c27 -24 33 -36 33 -71 0 -35 -6 -47 -33 -71
l-32 -29 -1431 0 c-962 0 -1437 3 -1450 10 -54 29 -61 121 -12 166 l26 24
1433 0 1434 0 32 -29z"/>
<path d="M7110 14633 c-30 -11 -60 -47 -70 -84 -12 -44 -1 -81 37 -121 l26
-27 463 -1 462 0 31 26 c17 14 36 43 42 64 10 32 9 44 -7 77 -36 74 -32 73
-529 72 -242 0 -447 -3 -455 -6z m914 -23 c62 -23 78 -111 30 -161 l-28 -29
-457 0 -456 0 -27 26 c-40 41 -39 104 2 147 l26 27 442 0 c257 0 453 -4 468
-10z"/>
<path d="M8558 14628 c-57 -47 -65 -128 -17 -183 l31 -35 460 0 460 0 34 34
c29 29 34 41 34 81 0 40 -5 52 -34 81 l-34 34 -459 0 c-352 0 -463 -3 -475
-12z m953 -37 c21 -22 29 -39 29 -66 0 -27 -8 -44 -29 -66 l-29 -29 -450 0
-450 0 -26 31 c-15 18 -26 43 -26 60 0 34 23 85 42 92 7 3 215 6 461 6 l449 1
29 -29z"/>
<path d="M2623 14610 c-53 -22 -78 -111 -48 -170 34 -65 -115 -60 1793 -60
1918 0 1773 -5 1807 66 25 52 15 101 -30 142 l-35 32 -1732 -1 c-1005 0 -1742
-4 -1755 -9z m3490 -21 c28 -13 57 -58 57 -89 0 -28 -17 -61 -44 -82 -20 -16
-127 -18 -1757 -18 l-1736 0 -22 24 c-43 45 -34 136 16 165 26 15 3453 15
3486 0z"/>
<path d="M10843 14222 l-113 -3 0 -54 0 -55 -156 0 -157 0 -97 -93 c-392 -377
-926 -626 -1495 -698 -129 -17 -482 -17 -610 0 -563 72 -1085 313 -1477 680
l-86 81 -186 0 -185 0 -3 53 -3 52 -1841 3 -1841 2 -5 -68 c-9 -122 -139 -389
-287 -588 -83 -112 -226 -261 -335 -348 -47 -38 -86 -75 -86 -82 0 -7 52 -148
115 -313 63 -166 115 -303 115 -305 0 -2 -11 -7 -25 -10 -66 -17 -75 -24 -65
-53 54 -172 89 -282 148 -468 39 -121 91 -287 117 -370 25 -82 50 -161 55
-175 5 -14 50 -155 100 -315 50 -159 113 -357 140 -440 27 -82 57 -179 68
-215 11 -36 50 -157 85 -270 36 -113 109 -342 162 -509 52 -168 99 -309 104
-315 5 -6 41 -114 81 -241 39 -126 89 -282 110 -345 21 -63 59 -182 85 -265
87 -277 118 -370 131 -390 7 -11 22 -54 34 -95 12 -41 30 -100 40 -130 22 -65
145 -449 225 -705 31 -99 85 -270 120 -380 77 -245 132 -417 320 -1015 80
-256 172 -548 205 -650 32 -102 84 -266 115 -365 31 -99 74 -234 95 -300 36
-114 260 -823 357 -1135 25 -80 74 -235 109 -345 35 -111 64 -206 64 -213 0
-15 7 -15 64 2 35 11 48 11 51 3 3 -7 74 -214 160 -461 85 -248 159 -454 163
-458 4 -4 30 -1 56 8 68 23 195 15 256 -15 65 -33 107 -67 141 -114 25 -34 29
-49 29 -104 l0 -63 113 -1 c551 -3 7132 3 7136 6 8 8 -44 6189 -52 6203 -10
16 -2587 18 -2587 2 0 -7 435 -10 1284 -10 l1284 0 6 -212 c3 -117 12 -1192
21 -2388 8 -1196 18 -2466 22 -2822 l6 -648 -2151 0 -2152 0 -1 308 c-1 169
-4 375 -8 457 l-6 150 -50 0 -50 0 -3 -457 -2 -458 -1394 0 -1394 0 -36 50
c-69 96 -178 151 -301 152 -38 0 -89 -5 -113 -12 -23 -7 -44 -11 -45 -9 -8 10
-352 1023 -401 1179 -133 429 -390 1246 -426 1355 -21 66 -168 530 -325 1030
-158 501 -311 987 -340 1080 -30 94 -115 364 -190 600 -75 237 -151 477 -170
535 -18 58 -62 195 -96 305 -35 110 -67 202 -71 206 -4 3 -49 135 -99 294 -49
159 -92 292 -94 295 -2 3 -47 143 -99 310 -53 168 -102 316 -110 330 -7 14
-84 250 -170 525 -87 275 -182 574 -211 665 -49 151 -108 336 -280 885 -35
110 -93 295 -130 410 -37 116 -94 296 -127 400 -33 105 -114 331 -180 503 -66
173 -116 317 -112 322 5 4 50 41 99 82 218 180 422 449 533 703 l31 70 1994 3
1994 2 119 -118 c783 -774 1915 -991 2933 -561 294 124 571 311 819 553 l112
109 0 -1886 c0 -1251 3 -1887 10 -1887 7 0 10 642 10 1905 0 1048 -4 1905 -8
1905 -4 0 -68 -60 -142 -133 -371 -365 -827 -609 -1330 -710 -343 -70 -717
-69 -1064 3 -516 106 -1007 379 -1373 764 l-82 86 -1990 0 -1989 0 11 30 11
30 2019 0 2020 0 67 -64 c389 -367 912 -614 1465 -693 175 -25 542 -23 720 5
298 46 530 119 790 247 258 126 469 272 656 452 l86 83 1450 0 1450 0 1 -6201
c0 -3411 4 -6204 7 -6208 4 -3 725 -6 1603 -6 l1597 0 3 3088 2 3087 -920 0
-920 0 -2 3073 -3 3072 -35 0 -35 0 0 -3110 0 -3110 876 -3 877 -2 6 -313 c3
-171 10 -1378 16 -2682 5 -1303 13 -2531 16 -2727 l6 -358 -1034 0 c-568 0
-1259 3 -1535 7 l-503 6 0 2814 0 2813 50 0 50 0 0 225 0 225 -50 0 c-47 0
-50 2 -50 25 0 23 4 25 44 25 25 0 47 4 50 8 2 4 7 495 10 1090 l5 1082 -54 0
-55 0 0 2100 c0 1743 -2 2102 -13 2106 -14 5 -2301 11 -2494 6z m107 -62 l0
-40 -100 0 -100 0 0 40 0 40 100 0 100 0 0 -40z m210 0 l0 -40 -95 0 -95 0 0
40 0 40 95 0 95 0 0 -40z m220 0 l0 -40 -95 0 -95 0 0 40 0 40 95 0 95 0 0
-40z m220 0 l0 -40 -100 0 -100 0 0 40 0 40 100 0 100 0 0 -40z m210 0 l0 -40
-95 0 -95 0 0 40 0 40 95 0 95 0 0 -40z m220 0 l0 -40 -95 0 -95 0 0 40 0 40
95 0 95 0 0 -40z m210 0 l0 -40 -95 0 -95 0 0 40 0 40 95 0 95 0 0 -40z m220
0 l0 -40 -95 0 -95 0 0 40 0 40 95 0 95 0 0 -40z m220 0 l0 -40 -100 0 -100 0
0 40 0 40 100 0 100 0 0 -40z m210 0 l0 -40 -95 0 -95 0 0 40 0 40 95 0 95 0
0 -40z m220 0 l0 -40 -95 0 -95 0 0 40 0 40 95 0 95 0 0 -40z m220 0 l0 -40
-100 0 -100 0 0 40 0 40 100 0 100 0 0 -40z m-10530 -35 l0 -45 -95 0 -95 0 0
45 0 45 95 0 95 0 0 -45z m215 0 l0 -40 -97 -3 -98 -3 0 39 c0 21 3 42 7 46 4
4 48 5 98 4 l90 -3 0 -40z m215 0 l0 -45 -95 0 -95 0 0 45 0 45 95 0 95 0 0
-45z m220 0 l0 -45 -95 0 -95 0 0 45 0 45 95 0 95 0 0 -45z m210 0 l0 -45 -95
0 -95 0 0 45 0 45 95 0 95 0 0 -45z m220 0 l0 -45 -95 0 -95 0 0 45 0 45 95 0
95 0 0 -45z m218 -3 l3 -43 -98 3 -98 3 -3 28 c-6 55 -1 58 100 55 l93 -3 3
-43z m212 3 l0 -45 -95 0 -95 0 0 45 0 45 95 0 95 0 0 -45z m220 0 l0 -45 -95
0 -95 0 0 45 0 45 95 0 95 0 0 -45z m210 0 l0 -45 -95 0 -95 0 0 45 0 45 95 0
95 0 0 -45z m220 0 l0 -45 -95 0 -95 0 0 45 0 45 95 0 95 0 0 -45z m218 -3 l3
-43 -98 3 -98 3 -3 28 c-6 55 -1 58 100 55 l93 -3 3 -43z m212 3 l0 -45 -95 0
-95 0 0 45 0 45 95 0 95 0 0 -45z m220 0 l0 -45 -95 0 -95 0 0 45 0 45 95 0
95 0 0 -45z m210 0 l0 -45 -95 0 -95 0 0 45 0 45 95 0 95 0 0 -45z m220 0 l0
-45 -95 0 -95 0 0 45 0 45 95 0 95 0 0 -45z m220 0 l0 -46 -97 3 -98 3 -3 28
c-6 54 -1 57 103 57 l95 0 0 -45z m8422 -3222 l3 -3068 917 -3 917 -2 3 -28
c2 -15 2 -1396 0 -3069 l-2 -3043 -40 0 c-22 0 -40 1 -41 3 0 1 -8 1368 -18
3037 -9 1669 -20 3041 -25 3048 -6 9 -197 12 -882 12 l-874 0 0 3090 c0 3083
0 3090 20 3090 20 0 20 -8 22 -3067z m-12532 1465 l28 -88 -40 -11 c-22 -5
-41 -9 -43 -7 -9 11 -24 72 -19 79 3 5 1 9 -4 9 -8 0 -32 64 -32 84 0 10 42
25 63 23 14 -1 26 -24 47 -89z m63 -199 c15 -50 27 -92 25 -94 -2 -1 -18 -7
-37 -14 -38 -12 -45 -8 -55 30 -4 19 -1 29 10 33 8 3 12 11 9 16 -5 8 -11 7
-21 -1 -9 -7 -14 -8 -13 -3 1 5 -3 21 -9 35 -21 52 -19 61 18 75 19 7 37 13
40 13 3 1 18 -40 33 -90z m67 -211 l28 -87 -31 -10 c-16 -6 -36 -11 -43 -11
-12 0 -30 53 -25 78 1 6 -2 12 -7 12 -7 0 -32 64 -32 83 0 7 61 26 73 23 5 -1
21 -41 37 -88z m64 -202 c14 -46 26 -86 26 -89 0 -3 -11 -8 -24 -11 -13 -3
-31 -8 -39 -12 -10 -3 -18 5 -25 26 -13 36 -5 70 10 48 8 -10 9 -10 5 2 -2 8
-9 15 -15 15 -16 0 -28 15 -40 52 -10 30 -9 32 16 42 55 20 59 16 86 -73z
m129 -409 c15 -46 27 -86 27 -89 0 -11 -72 -30 -80 -22 -14 15 -25 68 -12 60
8 -5 10 -2 6 8 -3 9 -9 14 -13 11 -4 -2 -15 18 -23 45 l-16 49 27 10 c51 19
56 15 84 -72z m62 -197 c31 -92 31 -106 1 -114 -13 -3 -31 -8 -39 -12 -10 -4
-17 6 -25 36 -8 34 -7 42 7 50 10 6 12 9 3 10 -8 0 -10 5 -6 13 6 9 5 9 -8 0
-13 -11 -17 -7 -27 28 -7 23 -11 42 -9 43 5 4 73 23 76 21 1 -1 13 -35 27 -75z
m69 -216 c16 -48 24 -90 19 -95 -4 -4 -23 -10 -42 -11 -29 -3 -35 1 -44 26 -8
25 -6 31 14 48 l24 18 -25 -9 c-23 -8 -26 -5 -41 38 l-16 46 31 12 c17 6 36
12 41 12 6 1 23 -38 39 -85z m63 -199 c30 -96 30 -102 -14 -114 -20 -6 -38 -9
-39 -8 -1 1 -11 34 -23 72 -12 39 -24 78 -27 88 -4 12 2 20 18 27 48 19 61 9
85 -65z m68 -211 c15 -48 23 -90 18 -95 -5 -5 -23 -11 -40 -15 l-31 -6 -26 79
c-14 43 -26 84 -26 90 0 10 40 28 72 32 4 1 19 -38 33 -85z m62 -198 c13 -41
25 -81 28 -88 4 -10 -7 -18 -36 -27 -22 -7 -42 -11 -43 -9 -5 7 -51 164 -51
172 0 10 35 23 65 25 10 1 22 -23 37 -73z m67 -212 c15 -47 24 -89 19 -94 -4
-4 -22 -12 -40 -18 l-32 -11 -26 84 c-14 45 -25 87 -25 92 0 8 41 26 70 32 3
1 18 -38 34 -85z m63 -198 c13 -41 25 -81 29 -89 3 -10 -5 -18 -27 -26 -50
-17 -56 -14 -68 36 -10 37 -9 48 1 56 10 7 9 8 -4 4 -11 -4 -18 2 -22 18 -3
13 -8 30 -12 38 -3 10 4 18 23 25 52 19 57 16 80 -62z m10503 -21 l0 -95 -40
0 -40 0 0 95 0 95 40 0 40 0 0 -95z m-10410 -281 c0 -6 -11 -15 -24 -18 -13
-3 -31 -9 -39 -12 -12 -4 -21 14 -41 79 -14 47 -26 89 -26 95 0 5 17 14 38 19
l37 9 28 -80 c15 -44 27 -85 27 -92z m10410 61 l0 -95 -40 0 -40 0 0 95 0 95
40 0 40 0 0 -95z m-10368 -186 l27 -84 -27 -12 c-48 -21 -58 -16 -72 33 -11
39 -11 47 1 56 11 8 11 9 -3 5 -11 -4 -18 2 -22 18 -3 13 -8 30 -11 37 -4 10
5 18 27 25 18 6 37 10 43 9 5 -2 22 -40 37 -87z m10368 -24 l0 -95 -40 0 -40
0 0 95 0 95 40 0 40 0 0 -95z m-10296 -172 c14 -49 26 -91 26 -94 0 -4 -11
-10 -24 -13 -13 -3 -31 -9 -39 -12 -12 -4 -21 13 -41 76 -14 44 -26 87 -26 94
0 11 38 29 71 35 3 1 18 -38 33 -86z m10296 -48 l0 -95 -40 0 -40 0 0 95 0 95
40 0 40 0 0 -95z m-10229 -168 l26 -86 -30 -10 c-16 -6 -35 -11 -42 -11 -6 0
-22 35 -35 78 -13 42 -25 82 -27 88 -4 11 52 34 72 30 5 -1 21 -41 36 -89z
m10229 -42 l0 -95 -40 0 -40 0 0 95 0 95 40 0 40 0 0 -95z m-10165 -161 c27
-88 25 -103 -12 -104 -6 0 -18 -3 -26 -6 -11 -4 -21 14 -41 73 -32 95 -32 101
-3 113 49 19 55 14 82 -76z m10165 -59 l0 -95 -40 0 -40 0 0 95 0 95 40 0 40
0 0 -95z m-10099 -137 c13 -46 24 -87 24 -92 0 -5 -17 -15 -37 -22 -36 -12
-37 -12 -47 17 -12 34 -4 70 10 47 6 -9 9 -10 9 -1 0 8 7 10 17 6 15 -6 16 -5
3 9 -11 11 -17 12 -22 4 -5 -7 -8 -6 -8 4 0 11 -4 10 -12 -5 -10 -17 -13 -14
-30 35 -10 29 -17 54 -15 55 5 5 63 23 73 24 6 1 22 -36 35 -81z m10099 -83
l0 -95 -40 0 -40 0 0 95 0 95 40 0 40 0 0 -95z m-10030 -136 l27 -87 -37 -11
c-49 -14 -47 -15 -54 13 -3 13 -9 31 -12 40 -4 11 0 16 12 16 16 0 16 2 4 9
-8 6 -17 8 -21 6 -6 -5 -33 74 -27 81 9 8 54 23 67 21 8 -1 25 -37 41 -88z
m10030 -74 l0 -95 -40 0 -40 0 0 95 0 95 40 0 40 0 0 -95z m-9971 -113 c13
-42 26 -84 28 -93 3 -12 -6 -19 -36 -27 -23 -5 -43 -7 -45 -3 -11 19 -14 58
-6 71 8 12 10 13 10 1 0 -8 2 -12 5 -9 8 8 -6 38 -17 38 -5 0 -7 -4 -3 -9 3
-5 1 -12 -4 -15 -8 -5 -33 66 -31 89 0 8 48 31 70 34 3 1 16 -34 29 -77z
m9971 -107 l0 -95 -40 0 -40 0 0 95 0 95 40 0 40 0 0 -95z m-9889 -116 l26
-87 -39 -12 c-22 -6 -41 -10 -43 -8 -11 12 -54 173 -48 179 10 9 43 17 62 15
9 -1 25 -34 42 -87z m9889 -94 l0 -95 -40 0 -40 0 0 95 0 95 40 0 40 0 0 -95z
m-9827 -106 c15 -50 27 -92 25 -93 -2 -1 -20 -7 -40 -13 -36 -10 -37 -10 -47
20 -14 38 -14 40 1 31 6 -4 8 -3 4 4 -3 5 0 13 6 16 7 4 3 4 -9 2 -17 -3 -23
3 -33 38 -6 22 -11 46 -10 51 0 8 47 31 70 34 3 1 18 -40 33 -90z m9827 -184
l0 -95 -40 0 -40 0 0 95 0 95 40 0 40 0 0 -95z m-9760 -27 l27 -87 -30 -10
c-47 -17 -54 -14 -65 29 -8 35 -8 40 7 40 13 0 14 2 1 9 -8 6 -17 8 -21 6 -6
-5 -33 74 -27 81 9 8 54 23 67 21 8 -1 25 -38 41 -89z m9760 -193 l0 -95 -40
0 -40 0 0 95 0 95 40 0 40 0 0 -95z m-9676 -73 c6 -26 4 -30 -18 -36 -13 -3
-31 -8 -39 -12 -17 -6 -40 47 -30 73 5 12 3 14 -8 8 -8 -4 -11 -5 -7 -1 3 4 0
23 -8 41 -21 51 -18 61 24 71 l37 9 21 -61 c12 -34 25 -75 28 -92z m47 -143
c15 -46 24 -87 20 -91 -3 -3 -22 -9 -42 -13 -34 -6 -37 -5 -43 21 -5 18 -3 30
6 35 10 7 10 9 -2 9 -12 0 -13 2 -1 9 11 7 9 10 -7 15 -11 4 -23 17 -26 30 -3
13 -8 31 -11 38 -4 10 5 18 27 25 18 6 37 10 43 9 5 -2 22 -41 36 -87z m64
-205 c27 -88 25 -103 -12 -104 -6 0 -18 -3 -26 -6 -18 -7 -39 46 -26 67 7 12
9 12 9 0 0 -8 2 -12 5 -9 3 3 3 13 -1 22 -4 12 -10 14 -19 6 -9 -7 -15 0 -23
29 -16 53 -15 60 11 71 49 19 55 14 82 -76z m68 -212 l25 -83 -23 -9 c-53 -20
-57 -18 -81 53 -35 103 -35 108 6 122 19 7 38 10 41 6 4 -3 18 -43 32 -89z
m61 -196 c14 -46 26 -86 26 -89 0 -5 -57 -27 -71 -27 -12 0 -32 69 -26 91 3
10 1 17 -4 13 -9 -5 -29 36 -29 61 0 12 39 32 67 34 6 1 23 -37 37 -83z m65
-203 c12 -40 24 -79 27 -86 3 -10 -8 -18 -38 -25 -23 -6 -43 -10 -43 -9 -1 1
-6 19 -12 40 -9 30 -9 37 3 37 8 0 14 4 14 10 0 5 -7 7 -15 4 -10 -4 -18 3
-25 22 -21 53 -17 66 20 79 19 7 38 10 41 6 4 -3 16 -38 28 -78z m65 -209 c15
-47 24 -89 19 -94 -4 -4 -23 -12 -40 -18 -32 -11 -33 -10 -43 29 -9 31 -8 44
2 57 7 9 9 14 4 10 -13 -11 -35 17 -42 51 -6 27 -3 31 27 40 19 5 36 10 39 10
3 1 18 -38 34 -85z m62 -196 c12 -36 25 -75 28 -86 5 -15 -1 -21 -35 -31 -22
-7 -42 -11 -44 -9 -2 2 -8 20 -13 41 -9 33 -9 38 4 33 8 -3 14 1 14 9 0 9 -6
12 -15 9 -14 -6 -21 6 -39 63 -5 17 -1 23 21 31 46 17 55 10 79 -60z m69 -218
c15 -50 26 -93 24 -94 -2 -2 -21 -8 -41 -14 -35 -10 -37 -9 -47 20 -14 39 -14
48 0 48 5 0 7 -6 3 -12 -5 -10 -4 -10 6 -1 15 14 7 43 -12 43 -9 0 -8 -3 2
-10 11 -7 11 -10 2 -10 -13 0 -42 57 -42 83 0 11 37 30 71 36 3 1 18 -40 34
-89z m66 -210 l28 -85 -27 -12 c-41 -18 -59 -15 -66 11 -3 13 -9 32 -13 42 -5
13 -3 16 10 11 11 -4 17 -1 17 8 0 8 8 15 18 15 14 0 15 -2 2 -10 -9 -6 -10
-10 -3 -10 19 0 26 20 9 26 -9 3 -13 11 -10 18 2 6 -3 1 -12 -11 -27 -37 -35
-31 -58 44 -5 17 -1 23 21 31 48 18 56 11 84 -78z m88 -286 c1 -7 -10 -15 -23
-18 -13 -3 -31 -8 -39 -12 -10 -4 -19 7 -30 39 -14 41 -13 44 4 55 15 10 19 9
20 0 0 -9 2 -9 6 1 5 11 7 11 15 0 8 -11 9 -11 5 1 -4 17 -26 21 -44 7 -9 -6
-13 -5 -13 2 0 7 -4 10 -9 7 -8 -5 -27 63 -19 68 2 2 19 7 38 12 l35 10 27
-80 c14 -45 27 -86 27 -92z m42 -127 c15 -48 24 -89 20 -91 -3 -2 -22 -7 -42
-11 -33 -6 -37 -4 -43 18 -3 14 -9 33 -13 43 -5 13 -3 16 10 11 11 -4 17 -1
17 8 0 8 -6 12 -14 9 -15 -6 -29 14 -39 57 -6 23 -3 27 26 37 17 5 36 9 42 8
5 -1 21 -42 36 -89z m63 -201 c14 -46 26 -86 26 -89 0 -5 -57 -27 -71 -27 -4
0 -13 16 -19 35 -9 28 -9 39 1 53 7 9 10 14 5 10 -12 -10 -30 11 -43 49 -11
30 -10 32 15 42 55 20 59 16 86 -73z m69 -214 l25 -83 -21 -8 c-64 -24 -64
-24 -73 16 -4 21 -7 46 -6 56 1 10 -2 16 -7 13 -7 -5 -36 72 -29 79 8 8 74 21
79 16 3 -3 18 -43 32 -89z m61 -198 c31 -94 28 -105 -23 -107 -32 -2 -33 -1
-60 84 l-28 87 31 10 c17 5 36 10 41 11 6 1 23 -38 39 -85z m63 -198 c13 -41
25 -81 28 -88 4 -10 -7 -18 -36 -27 -22 -7 -42 -11 -43 -9 -1 2 -12 37 -25 78
-13 41 -26 81 -28 87 -5 14 29 31 62 32 16 1 24 -13 42 -73z m66 -209 c15 -46
27 -88 27 -94 0 -6 -18 -15 -39 -21 l-39 -9 -26 82 c-14 46 -26 87 -26 93 0 7
41 25 70 31 3 1 18 -36 33 -82z m69 -218 l27 -84 -27 -12 c-51 -23 -58 -18
-81 61 -11 41 -24 81 -27 90 -4 11 4 18 28 25 18 5 37 8 43 7 5 -1 22 -40 37
-87z m82 -267 c6 -26 4 -30 -18 -36 -13 -3 -31 -9 -39 -12 -13 -4 -22 13 -42
81 -15 48 -24 90 -20 93 3 4 21 12 38 18 l32 11 21 -62 c12 -35 25 -76 28 -93z
m47 -145 c15 -48 24 -89 20 -91 -3 -2 -22 -7 -42 -11 -35 -6 -36 -6 -48 34 -6
23 -9 47 -5 53 4 6 3 8 -3 5 -6 -4 -14 5 -17 21 -4 15 -9 34 -12 43 -3 11 5
19 28 26 18 6 37 10 43 9 5 -1 21 -42 36 -89z m63 -201 c14 -46 26 -86 26 -89
0 -5 -57 -27 -71 -27 -4 0 -21 40 -37 89 l-30 90 26 10 c55 20 59 16 86 -73z
m66 -210 l29 -87 -22 -8 c-64 -24 -64 -24 -75 21 -6 23 -9 45 -6 50 3 4 1 8
-4 8 -8 0 -37 79 -30 84 5 4 73 23 76 21 1 -1 15 -41 32 -89z m64 -202 c15
-47 24 -89 19 -94 -4 -4 -22 -12 -40 -18 l-32 -11 -29 92 -28 92 30 12 c17 6
36 12 41 12 6 1 23 -38 39 -85z m3749 -576 c4 -149 7 -376 7 -505 l0 -233 -40
0 -40 0 0 505 0 505 33 0 34 0 6 -272z m1947 -693 l0 -45 -95 0 -95 0 0 45 0
45 95 0 95 0 0 -45z m220 0 l0 -45 -95 0 -95 0 0 45 0 45 95 0 95 0 0 -45z
m218 -2 l3 -43 -100 0 -101 0 0 38 c0 21 3 42 7 46 4 4 48 5 98 4 l90 -3 3
-42z m212 2 l0 -45 -95 0 -95 0 0 45 0 45 95 0 95 0 0 -45z m220 0 l0 -45 -95
0 -95 0 0 45 0 45 95 0 95 0 0 -45z m210 0 l0 -46 -92 3 -93 3 -3 43 -3 42 95
0 96 0 0 -45z m220 0 l0 -45 -95 0 -95 0 0 45 0 45 95 0 95 0 0 -45z m215 0
l0 -40 -95 0 -95 0 -3 28 c-6 55 -1 58 100 55 l93 -3 0 -40z m215 0 l0 -45
-95 0 -95 0 0 45 0 45 95 0 95 0 0 -45z m220 0 l0 -45 -95 0 -95 0 0 45 0 45
95 0 95 0 0 -45z m210 0 l0 -45 -95 0 -95 0 0 45 0 45 95 0 95 0 0 -45z m220
0 l0 -45 -95 0 -95 0 0 45 0 45 95 0 95 0 0 -45z m-7010 -5 l0 -40 -100 0
-100 0 0 40 0 40 100 0 100 0 0 -40z m210 0 l0 -40 -95 0 -95 0 0 40 0 40 95
0 95 0 0 -40z m220 0 l0 -40 -95 0 -95 0 0 40 0 40 95 0 95 0 0 -40z m220 0
l0 -40 -100 0 -100 0 0 40 0 40 100 0 100 0 0 -40z m210 0 l0 -40 -95 0 -95 0
0 40 0 40 95 0 95 0 0 -40z m220 0 l0 -40 -95 0 -95 0 0 40 0 40 95 0 95 0 0
-40z m210 0 l0 -40 -95 0 -95 0 0 40 0 40 95 0 95 0 0 -40z m220 0 l0 -40 -95
0 -95 0 0 40 0 40 95 0 95 0 0 -40z m220 0 l0 -40 -100 0 -100 0 0 40 0 40
100 0 100 0 0 -40z m210 0 l0 -40 -95 0 -95 0 0 40 0 40 95 0 95 0 0 -40z
m220 0 l0 -40 -95 0 -95 0 0 40 0 40 95 0 95 0 0 -40z m210 0 l0 -40 -95 0
-95 0 0 40 0 40 95 0 95 0 0 -40z m220 0 l0 -40 -95 0 -95 0 0 40 0 40 95 0
95 0 0 -40z m310 0 l0 -40 -95 0 -95 0 0 40 0 40 95 0 95 0 0 -40z m220 0 l0
-40 -95 0 -95 0 0 40 0 40 95 0 95 0 0 -40z m220 0 l0 -40 -100 0 -100 0 0 40
0 40 100 0 100 0 0 -40z m210 0 l0 -40 -95 0 -95 0 0 40 0 40 95 0 95 0 0 -40z
m220 0 l0 -40 -95 0 -95 0 0 40 0 40 95 0 95 0 0 -40z m210 0 l0 -40 -95 0
-95 0 0 40 0 40 95 0 95 0 0 -40z m220 0 l0 -40 -95 0 -95 0 0 40 0 40 95 0
95 0 0 -40z m220 0 l0 -40 -100 0 -100 0 0 40 0 40 100 0 100 0 0 -40z"/>
<path d="M13939 14089 c-53 -8 -93 -27 -138 -65 l-31 -26 0 -3109 0 -3109 21
-21 c67 -67 228 -85 329 -38 31 14 63 34 73 43 16 16 17 189 17 3116 l0 3099
-30 34 c-51 59 -151 90 -241 76z m155 -39 c23 -12 55 -33 70 -48 l26 -28 -2
-3099 -3 -3099 -59 -31 c-51 -25 -70 -30 -136 -30 -66 0 -85 5 -136 30 l-59
31 -3 3106 -2 3107 33 25 c52 40 97 55 165 56 42 0 76 -6 106 -20z"/>
<path d="M7098 14078 c-5 -14 31 -47 136 -122 617 -442 1449 -461 2086 -49
113 74 210 151 210 169 0 12 -174 14 -1214 14 -932 0 -1215 -3 -1218 -12z
m2386 -27 c-38 -35 -192 -140 -273 -186 -401 -227 -896 -293 -1346 -179 -246
62 -527 202 -695 344 l-35 29 1179 1 c676 0 1176 -4 1170 -9z"/>
<path d="M10672 13988 c-16 -16 -18 -3808 -2 -3808 7 0 10 638 10 1895 l0
1895 1255 0 1255 0 0 -3060 0 -3060 -1285 0 c-853 0 -1285 -3 -1285 -10 0 -7
433 -9 1293 -8 l1292 3 0 3080 0 3080 -1260 3 c-973 1 -1264 -1 -1273 -10z"/>
<path d="M1284 12896 c-38 -17 -74 -61 -69 -86 2 -10 130 -440 285 -955 300
-1003 3161 -10144 3187 -10183 23 -37 79 -56 124 -43 45 14 89 63 89 99 0 34
-3446 11098 -3467 11130 -15 25 -69 52 -100 52 -10 -1 -32 -7 -49 -14z m106
-28 c33 -23 41 -48 1756 -5553 948 -3041 1726 -5546 1730 -5566 5 -31 2 -41
-23 -69 -24 -27 -36 -33 -72 -33 -32 0 -49 6 -66 24 -28 30 -2774 8785 -3195
10189 -154 514 -282 940 -285 947 -5 15 32 62 59 73 35 15 62 11 96 -12z"/>
<path d="M5135 1377 c-228 -76 -338 -326 -237 -540 147 -314 600 -295 722 30
18 49 21 73 18 153 -4 82 -8 103 -35 155 -38 73 -109 143 -183 181 -47 24 -69
28 -150 31 -60 2 -110 -2 -135 -10z m277 -40 c66 -32 151 -118 181 -184 18
-40 22 -66 22 -153 0 -100 -1 -108 -34 -168 -162 -299 -593 -254 -686 72 -45
155 25 333 163 413 77 45 111 53 208 50 74 -2 100 -8 146 -30z"/>
<path d="M6205 1306 c-47 -21 -67 -51 -73 -105 -4 -45 -1 -52 29 -85 l34 -37
3740 1 3740 0 33 35 c26 29 32 43 32 81 0 39 -5 51 -34 80 l-34 34 -3683 0
c-2026 0 -3700 2 -3719 5 -19 3 -48 -1 -65 -9z m3772 -16 l3685 0 29 -29 c42
-43 37 -119 -11 -149 -15 -9 -886 -12 -3747 -12 l-3728 -1 -27 31 c-63 69 -5
180 86 165 16 -3 1687 -5 3713 -5z"/>
</g>
</svg>
